<svg id="Layer_1" enable-background="new 0 0 512.001 512.001" height="512" viewBox="0 0 512.001 512.001" width="512" xmlns="http://www.w3.org/2000/svg"><g><path d="m423.886 224c-48.52.05-87.96 39.8-87.91 88.62.02 26.67 13.31 57.07 39.5 90.37 18.69 23.77 37.21 40.29 37.99 40.98 6.077 5.395 15.224 5.358 21.26-.02.78-.69 19.27-17.25 37.92-41.05 20.008-25.543 39.33-58.126 39.33-90.45-.042-48.726-39.184-88.45-88.09-88.45zm.18 185.84c-21.86-22.2-56.06-63.98-56.09-97.25-.03-31.18 25.07-56.56 55.94-56.59 31.042 0 56.019 25.277 56.06 56.48.03 33.27-34.1 75.13-55.91 97.36z"/><path d="m423.976 288c-21.18 0-32.149 25.801-16.96 40.99 12.045 12.018 32.577 8.034 39.15-7.82 6.508-15.697-5.095-33.17-22.19-33.17z"/><path d="m77.396 219.96c6.063 5.382 15.188 5.391 21.26 0 .78-.69 19.29-17.23 37.96-41.01 26.15-33.33 39.41-63.74 39.41-90.42 0-48.81-39.48-88.53-88-88.53s-88 39.72-88 88.53c0 26.68 13.26 57.09 39.41 90.42 18.67 23.78 37.18 40.32 37.96 41.01zm10.63-187.96c30.88 0 56 25.36 56 56.53 0 33.28-34.18 75.11-56.01 97.32-21.84-22.17-55.99-63.94-55.99-97.32 0-31.17 25.12-56.53 56-56.53z"/><circle cx="88.026" cy="88" r="24"/><path d="m448.136 487.98c.017 21.872-27.164 32.43-41.87 16.02h-334.24c-39.7 0-72-32.3-72-72s32.3-72 72-72h160.5c21.78 0 39.5-17.72 39.5-39.5s-17.72-39.5-39.5-39.5h-126.61c-14.83 16.366-41.873 5.928-41.89-15.98-.034-21.935 26.977-32.381 41.89-16.02h126.61c39.43 0 71.5 32.07 71.5 71.5s-32.07 71.5-71.5 71.5h-160.5c-22.06 0-40 17.94-40 40s17.94 40 40 40h334.23c14.885-16.426 41.847-5.81 41.88 15.98z"/></g></svg>